<?xml version="1.0" encoding="UTF-8"?>
<svg xmlns="http://www.w3.org/2000/svg" xmlns:xlink="http://www.w3.org/1999/xlink" viewBox="0 0 256 256">
  <defs>
    <style>
      .cls-1 {
        fill: #ed3f32;
      }

      .cls-1, .cls-2, .cls-3, .cls-4, .cls-5, .cls-6, .cls-7, .cls-8, .cls-9, .cls-10, .cls-11, .cls-12, .cls-13, .cls-14, .cls-15, .cls-16, .cls-17, .cls-18, .cls-19, .cls-20 {
        stroke-width: 0px;
      }

      .cls-2 {
        fill: url(#linear-gradient);
      }

      .cls-3 {
        fill: url(#linear-gradient-6);
      }

      .cls-4 {
        fill: #fbd490;
      }

      .cls-5 {
        fill: #88c057;
      }

      .cls-6 {
        fill: url(#linear-gradient-11);
      }

      .cls-7 {
        fill: url(#linear-gradient-5);
      }

      .cls-8 {
        fill: #eeaf4b;
      }

      .cls-21 {
        filter: url(#outer-glow-1);
      }

      .cls-9 {
        fill: #dae7ef;
      }

      .cls-10 {
        fill: #fff;
      }

      .cls-11 {
        fill: #fffefd;
      }

      .cls-12 {
        fill: url(#linear-gradient-2);
      }

      .cls-13 {
        fill: url(#linear-gradient-7);
      }

      .cls-14 {
        fill: url(#linear-gradient-3);
      }

      .cls-15 {
        fill: url(#linear-gradient-9);
      }

      .cls-16 {
        fill: url(#linear-gradient-8);
      }

      .cls-17 {
        fill: #a46f3e;
      }

      .cls-18 {
        fill: url(#linear-gradient-10);
      }

      .cls-19 {
        fill: #436b1c;
      }

      .cls-20 {
        fill: url(#linear-gradient-4);
      }
    </style>
    <linearGradient id="linear-gradient" x1="30.34" y1="238.51" x2="184.33" y2="96.73" gradientUnits="userSpaceOnUse">
      <stop offset="0" stop-color="#dfa51a"/>
      <stop offset="1" stop-color="#feda95"/>
    </linearGradient>
    <linearGradient id="linear-gradient-2" x1="22.09" y1="229.54" x2="176.08" y2="87.77" xlink:href="#linear-gradient"/>
    <linearGradient id="linear-gradient-3" x1="42.83" y1="252.11" x2="196.82" y2="110.33" xlink:href="#linear-gradient"/>
    <linearGradient id="linear-gradient-4" x1="14.76" y1="221.59" x2="168.76" y2="79.81" xlink:href="#linear-gradient"/>
    <linearGradient id="linear-gradient-5" x1="41.32" y1="250.43" x2="195.31" y2="108.65" xlink:href="#linear-gradient"/>
    <linearGradient id="linear-gradient-6" x1="49.49" y1="259.31" x2="203.49" y2="117.53" xlink:href="#linear-gradient"/>
    <linearGradient id="linear-gradient-7" x1="22.09" y1="229.54" x2="176.08" y2="87.77" xlink:href="#linear-gradient"/>
    <linearGradient id="linear-gradient-8" x1="42.83" y1="252.11" x2="196.82" y2="110.33" xlink:href="#linear-gradient"/>
    <linearGradient id="linear-gradient-9" x1="14.76" y1="221.59" x2="168.76" y2="79.81" xlink:href="#linear-gradient"/>
    <linearGradient id="linear-gradient-10" x1="41.32" y1="250.43" x2="195.31" y2="108.65" xlink:href="#linear-gradient"/>
    <linearGradient id="linear-gradient-11" x1="49.49" y1="259.31" x2="203.49" y2="117.53" xlink:href="#linear-gradient"/>
    <filter id="outer-glow-1" filterUnits="userSpaceOnUse">
      <feOffset dx="0" dy="0"/>
      <feGaussianBlur result="blur" stdDeviation="5"/>
      <feFlood flood-color="#000" flood-opacity=".3"/>
      <feComposite in2="blur" operator="in"/>
      <feComposite in="SourceGraphic"/>
    </filter>
  </defs>
  <g id="Layer_3" data-name="Layer 3">
    <circle class="cls-11" cx="128" cy="128" r="128"/>
  </g>
  <g id="Layer_1" data-name="Layer 1">
    <g>
      <path class="cls-2" d="M227.04,120.6c-.18-3.81-1.15-7.61-1.77-11.42-1.15,2.83-1.77,5.58-2.3,8.32-4.6,22.48-19.92,35.59-42.84,37.09-1.95.09-4.25,1.33-5.58,2.74-4.78,5.22-7.44,6.2-13.99,3.45-4.07-1.68-7.97-2.66-12.39-1.68-6.2,1.24-9.12-.18-11.86-6.02-1.95-4.34-5.13-6.64-9.47-7.97-11.33-3.45-19.12-10.98-23.28-21.86-7.97-21.33-2.48-40.54,10-58.42,1.33-1.86,3.01-2.92,5.31-1.68,3.1,1.59,5.75.35,8.32-1.33,4.87-3.19,9.83-6.28,14.52-9.56,1.33-.97,2.83-2.48,3.19-4.07,1.77-8.06-6.28-19.39-14.43-20.18-8.76-.89-15.23,3.54-19.74,10.71-3.72,5.84-3.1,11.86.62,17.53,1.59,2.39,1.5,4.16-.97,5.84-2.21,1.59-4.25,3.36-6.37,5.13-13.28,11.51-20.45,26.11-20.98,43.82-.18,5.4.09,10.98-.44,16.29-.97,9.47-2.21,18.85,1.06,28.15.27.89.44,1.77.53,2.66.18,2.66-1.06,3.28-3.36,2.21-.89-.44-1.77-1.06-2.66-1.68-8.23-5.84-13.72-13.81-17.7-22.75-9.91-22.66-9.12-44.35,5.93-64.8,2.12-2.83,4.69-5.4,6.99-8.06-9.65,5.05-16.46,12.92-21.6,22.13-5.93,10.62-9.12,22.13-8.41,34.35.89,14.69,1.24,29.57,3.54,44.08,1.59,9.91,5.75,19.65,9.65,29.03,4.78,11.6,13.37,18.5,26.64,18.5,10.53,0,12.84-3.01,9.83-13.01-1.33-4.43-2.3-9.03-3.01-13.63-.18-1.24.89-2.74,1.42-4.07,1.06.97,2.48,1.86,3.1,3.01,2.12,4.34,3.98,8.76,5.93,13.1,5.31,11.42,10.27,23.1,20.54,31.16,11.33,8.94,23.99,11.24,37.71,6.9,5.13-1.68,6.11-3.72,3.81-8.5-3.72-7.7-5.67-15.85-6.55-24.25-.8-7.88-.62-15.67,3.45-22.66,1.24-2.21,4.07-4.43,6.46-4.69,3.1-.44,5.05,2.92,5.31,5.75.62,6.82.89,13.63.62,20.45-.18,5.22-1.86,10.45-2.04,15.76-.27,6.64,3.89,11.68,9.65,11.33,10.71-.71,20.36-4.16,25.94-14.34,5.22-9.56,9.47-19.47,13.01-29.92,6.99-20.63,9.91-41.52,8.68-62.94Z"/>
      <path class="cls-12" d="M218.1,41.02c-5.22-3.19-10.89-3.63-16.29-.71-5.58,3.01-8.59,7.97-9.91,15.23.8,1.15,1.68,3.19,3.19,4.51,4.43,3.89,9.38,7.26,13.63,11.33,3.1,2.92,6.2,3.36,9.47,1.42,4.69-2.74,8.23-6.73,9.56-12.22,1.68-7.17-2.04-14.87-9.65-19.56Z"/>
      <path class="cls-14" d="M189.68,103.87c-3.45-1.77-7.26-2.12-10.09.8-3.28,3.28-6.99,7.17-5.4,12.13,1.77,5.58,4.87,10.89,7.79,15.93,1.06,1.86,3.54,2.83,4.51,3.54,5.22-.27,8.32-1.68,10.36-4.87,5.49-8.23,1.59-22.93-7.17-27.53Z"/>
      <path class="cls-20" d="M146.04,101.57c-2.12-4.6-6.37-6.46-11.24-4.87-8.14,2.74-13.46,10.18-13.46,18.85,0,6.2,2.66,10.62,7.17,12.13,4.34,1.42,7.88-.27,11.95-5.75,1.06-1.42,2.04-3.1,3.36-4.25,5.58-4.69,4.87-10.27,2.21-16.11Z"/>
      <path class="cls-7" d="M163.83,143.53c-4.25-1.06-8.59-1.68-13.19-2.48-1.5.44-3.36.71-4.87,1.59-1.68.97-1.86,2.66,0,3.63,5.67,2.92,11.07,8.23,17.97,2.92,1.15-.89,2.21-1.77,3.28-2.74-1.06-1.06-1.95-2.66-3.19-2.92Z"/>
      <path class="cls-2" d="M227.04,120.6c-.18-3.81-1.15-7.61-1.77-11.42-1.15,2.83-1.77,5.58-2.3,8.32-4.6,22.48-19.92,35.59-42.84,37.09-1.95.09-4.25,1.33-5.58,2.74-4.78,5.22-7.44,6.2-13.99,3.45-4.07-1.68-7.97-2.66-12.39-1.68-6.2,1.24-9.12-.18-11.86-6.02-1.95-4.34-5.13-6.64-9.47-7.97-11.33-3.45-19.12-10.98-23.28-21.86-7.97-21.33-2.48-40.54,10-58.42,1.33-1.86,3.01-2.92,5.31-1.68,3.1,1.59,5.75.35,8.32-1.33,4.87-3.19,9.83-6.28,14.52-9.56,1.33-.97,2.83-2.48,3.19-4.07,1.77-8.06-6.28-19.39-14.43-20.18-8.76-.89-15.23,3.54-19.74,10.71-3.72,5.84-3.1,11.86.62,17.53,1.59,2.39,1.5,4.16-.97,5.84-2.21,1.59-4.25,3.36-6.37,5.13-13.28,11.51-20.45,26.11-20.98,43.82-.18,5.4.09,10.98-.44,16.29-.97,9.47-2.21,18.85,1.06,28.15.27.89.44,1.77.53,2.66.18,2.66-1.06,3.28-3.36,2.21-.89-.44-1.77-1.06-2.66-1.68-8.23-5.84-13.72-13.81-17.7-22.75-9.91-22.66-9.12-44.35,5.93-64.8,2.12-2.83,4.69-5.4,6.99-8.06-9.65,5.05-16.46,12.92-21.6,22.13-5.93,10.62-9.12,22.13-8.41,34.35.89,14.69,1.24,29.57,3.54,44.08,1.59,9.91,5.75,19.65,9.65,29.03,4.78,11.6,13.37,18.5,26.64,18.5,10.53,0,12.84-3.01,9.83-13.01-1.33-4.43-2.3-9.03-3.01-13.63-.18-1.24.89-2.74,1.42-4.07,1.06.97,2.48,1.86,3.1,3.01,2.12,4.34,3.98,8.76,5.93,13.1,5.31,11.42,10.27,23.1,20.54,31.16,11.33,8.94,23.99,11.24,37.71,6.9,5.13-1.68,6.11-3.72,3.81-8.5-3.72-7.7-5.67-15.85-6.55-24.25-.8-7.88-.62-15.67,3.45-22.66,1.24-2.21,4.07-4.43,6.46-4.69,3.1-.44,5.05,2.92,5.31,5.75.62,6.82.89,13.63.62,20.45-.18,5.22-1.86,10.45-2.04,15.76-.27,6.64,3.89,11.68,9.65,11.33,10.71-.71,20.36-4.16,25.94-14.34,5.22-9.56,9.47-19.47,13.01-29.92,6.99-20.63,9.91-41.52,8.68-62.94Z"/>
      <path class="cls-3" d="M143.38,160.96c1.33,5.49,6.11,8.59,12.48,8.32,5.13-.18,7.88-2.12,8.41-5.58-6.82-.89-13.63-1.86-20.89-2.74Z"/>
      <path class="cls-13" d="M218.1,41.02c-5.22-3.19-10.89-3.63-16.29-.71-5.58,3.01-8.59,7.97-9.91,15.23.8,1.15,1.68,3.19,3.19,4.51,4.43,3.89,9.38,7.26,13.63,11.33,3.1,2.92,6.2,3.36,9.47,1.42,4.69-2.74,8.23-6.73,9.56-12.22,1.68-7.17-2.04-14.87-9.65-19.56Z"/>
      <path class="cls-16" d="M189.68,103.87c-3.45-1.77-7.26-2.12-10.09.8-3.28,3.28-6.99,7.17-5.4,12.13,1.77,5.58,4.87,10.89,7.79,15.93,1.06,1.86,3.54,2.83,4.51,3.54,5.22-.27,8.32-1.68,10.36-4.87,5.49-8.23,1.59-22.93-7.17-27.53Z"/>
      <path class="cls-15" d="M146.04,101.57c-2.12-4.6-6.37-6.46-11.24-4.87-8.14,2.74-13.46,10.18-13.46,18.85,0,6.2,2.66,10.62,7.17,12.13,4.34,1.42,7.88-.27,11.95-5.75,1.06-1.42,2.04-3.1,3.36-4.25,5.58-4.69,4.87-10.27,2.21-16.11Z"/>
      <path class="cls-18" d="M163.83,143.53c-4.25-1.06-8.59-1.68-13.19-2.48-1.5.44-3.36.71-4.87,1.59-1.68.97-1.86,2.66,0,3.63,5.67,2.92,11.07,8.23,17.97,2.92,1.15-.89,2.21-1.77,3.28-2.74-1.06-1.06-1.95-2.66-3.19-2.92Z"/>
      <path class="cls-6" d="M143.38,160.96c1.33,5.49,6.11,8.59,12.48,8.32,5.13-.18,7.88-2.12,8.41-5.58-6.82-.89-13.63-1.86-20.89-2.74Z"/>
    </g>
    <g class="cls-21">
      <path class="cls-19" d="M137.09,190.42c-1.52-1.09-1.87-3.21-.77-4.73,3.53-4.92,9.99-9.89,17.1-9.17,1.86.19,3.22,1.85,3.03,3.72-.19,1.86-1.81,3.06-3.71,3.03-4.44-.46-8.6,3.16-10.91,6.38-.71.99-1.86,1.49-2.99,1.41-.61-.04-1.21-.25-1.74-.63Z"/>
      <path class="cls-5" d="M60.78,156.06c-.23,4.53-1.74,56.15,1.34,59.33,3.14-3.47,38.91,5.39,42.67-.29,11.35-17.08,21.49-38.77,29.18-31.53,2.03-1.67,3.41-4.13,3.61-6.96.22-3.1-1.01-5.97-3.1-7.95,1.3-1.92,2.13-4.18,2.31-6.66.52-7.31-4.84-13.66-12.05-14.47.27-.87.46-1.78.53-2.72.44-6.2-4-11.6-10.04-12.49,0-.02,0-.03,0-.05.35-5-3.41-9.34-8.41-9.69-2.33-.16-4.5.59-6.21,1.93-1.57-1.79-3.91-2.9-6.56-2.77-3.23.16-6.11,2.34-7.24,5.36-.4,1.08-.54,2.13-.49,3.13-.02,0-.04,0-.06,0-6.7-.47-12.54,4.35-13.46,10.9-6.61,1.81-11.65,7.67-12.02,14.93Z"/>
      <path class="cls-1" d="M154.21,211.28c5.05-12.31-1.93-17.46-11.64-20.99-2.26-.82-4.29-2.19-5.91-3.97-8.42-9.28-17.52-14-30.2,5.11-3.77,5.68-5.12,14.36-3.45,21.51,2.92.48,5.96.07,8.69-1.32l2.51-1.27c4.65-2.36,10.22-1.97,14.5,1.02l1.12.79c5,3.5,11.53,3.96,16.98,1.2l4.74-2.41c.94-.48,1.95-.26,2.65.33Z"/>
      <g>
        <path class="cls-8" d="M78.58,213.42c-3.48-17.57-8.88-34.96-16.12-51.11-5.1-11.36-11.82-35.01-23.06-41.85-11.43-6.96-19.53,6.01-19.91,14.66-.96,21.52,1.61,43.34,6.53,64.23.21.92.77,2.99,1.57,5.85l6.6,3.51c4.27,2.99,9.84,3.39,14.5,1.02l2.51-1.27c4.65-2.36,10.22-1.97,14.5,1.02l2.31,1.61c3.12,2.18,6.93,2.97,10.58,2.32Z"/>
        <path class="cls-17" d="M56.89,200.61c-.84-3.18-4.11-5.09-7.28-4.25-6.79,1.78-13.78-2.3-15.56-9.09-.48-1.81.61-3.66,2.42-4.14,1.82-.48,3.67.61,4.14,2.42.84,3.18,4.1,5.09,7.28,4.25,6.78-1.76,13.77,2.3,15.56,9.09.48,1.81-.61,3.66-2.42,4.14-.37.1-.74.13-1.1.1-1.41-.1-2.66-1.07-3.04-2.52Z"/>
        <path class="cls-17" d="M50.56,176.49c-.41-1.54-1.39-2.83-2.76-3.64s-2.98-1.02-4.52-.62c-6.79,1.77-13.78-2.3-15.56-9.1-.48-1.81.61-3.66,2.42-4.14,1.81-.48,3.66.61,4.14,2.42.84,3.19,4.1,5.1,7.28,4.26,3.3-.86,6.73-.39,9.66,1.32,2.94,1.72,5.03,4.48,5.9,7.77.48,1.81-.61,3.66-2.42,4.14-.37.1-.74.13-1.1.1-1.41-.1-2.66-1.08-3.04-2.52Z"/>
        <path class="cls-17" d="M44.23,152.37c-.62-2.35-3.03-3.76-5.38-3.14-2.89.76-5.9.35-8.49-1.16-2.58-1.5-4.42-3.93-5.18-6.82-.48-1.81.61-3.66,2.42-4.14,1.82-.48,3.67.61,4.14,2.42.3,1.14,1.02,2.09,2.04,2.69,1.02.59,2.2.75,3.34.45,5.96-1.56,12.1,2.02,13.66,7.98.48,1.81-.61,3.66-2.42,4.14-.37.1-.74.13-1.1.1-1.41-.1-2.66-1.08-3.04-2.52Z"/>
      </g>
      <path class="cls-9" d="M98.74,167.78c-1.11-2.49.61-5.18,3.19-6.08,1.12-.39,2.05-1.3,2.41-2.52l.54-1.84c.59-2.02-.57-4.16-2.6-4.76l-20.23-5.94c-2.02-.59-4.16.57-4.76,2.6l-.54,1.84c-.35,1.2-.08,2.44.61,3.37,1.77,2.37,1.37,5.88-1.3,7.17-.02,0-.05.02-.07.03-4.22,1.96-9.96,3.75-13.04,10.11,4.73,12.52,8.42,25.59,11.03,38.77,0,0,1.88-.26,3.92-1.3l2.51-1.27c4.65-2.36,10.22-1.97,14.5,1.02l2.31,1.61h0s6.91-23.52,6.91-23.52c2.57-8.75-2.12-14.14-5.01-18.61-.15-.23-.27-.46-.38-.69Z"/>
      <path class="cls-10" d="M75.08,150.19l.44-1.5c.74-2.53,3.42-3.99,5.95-3.25l22.9,6.73c2.53.74,3.99,3.42,3.25,5.95l-.44,1.5c-.74,2.53-3.42,3.99-5.95,3.25l-22.9-6.73c-2.53-.74-3.99-3.42-3.25-5.95Z"/>
      <path class="cls-4" d="M151.79,210.97l-4.74,2.41c-5.45,2.77-11.97,2.3-16.98-1.2l-1.12-.79c-4.27-2.99-9.85-3.39-14.5-1.02l-2.51,1.28c-4.65,2.36-10.23,1.97-14.5-1.02l-2.31-1.62c-4.27-2.99-9.85-3.39-14.5-1.02l-2.51,1.28c-4.65,2.36-10.23,1.97-14.5-1.02l-2.31-1.62c-4.27-2.99-9.85-3.39-14.5-1.02l-2.51,1.28c-4.65,2.36-10.23,1.97-14.5-1.02l-3.86-2.05c23.3,31.66,60.82,52.21,103.15,52.21,6.93,0,13.73-.56,20.37-1.62l5.8-40.97c.23-1.92-1.76-3.32-3.49-2.45Z"/>
    </g>
  </g>
</svg>