<?xml version="1.0" encoding="UTF-8"?>
<svg id="a" data-name="Layer 2" xmlns="http://www.w3.org/2000/svg" viewBox="0 0 597.75 597.75">
  <defs>
    <style>
      .b {
        fill: #6fc;
      }

      .c {
        fill: #3c9;
      }

      .d {
        fill: #1baf3a;
      }

      .e {
        fill: #fff;
        stroke: #000;
        stroke-miterlimit: 10;
        stroke-width: 10px;
      }
    </style>
  </defs>
  <g>
    <g>
      <path class="b" d="M294.32,568.77c224.04,0,226.91-239.55,226.91-239.55,0,0-22.98-158.55-226.91-158.55"/>
      <path class="b" d="M453.64,260.6c43.66-18.9,38.3-82.86,38.3-82.86,0,0-43.66,13.79-96.89,20.3"/>
      <path class="b" d="M419.17,210.68c57.06-40.02,44.43-101.49,44.43-101.49,0,0-96.89,58.6-150.13,65.11"/>
      <path class="e" d="M388.82,255.75c2.74,4.79,4.31,10.32,4.31,16.23,0,18.08-14.66,32.74-32.74,32.74-12.07,0-22.6-6.53-28.28-16.25,21.58-6.21,40.96-17.59,56.72-32.73Z"/>
      <path d="M435.64,214.89c-19.3,12.37-36.53,26.99-54.99,40.3-17.81,13.31-37.04,24.56-58.8,29.64-6.22,1.56-12.6,2.62-19.11,3.78,4.89,.73,9.86,1.19,14.82,1.19,25.48,.38,49.48-11.23,69-26.73,18.2-14.12,34.35-30.49,49.08-48.19h0Z"/>
      <path class="e" d="M294.32,342.72c79.28-7.19,116.62-26.14,157.04-82.12,40,123.76-64.82,230.61-157.04,218.84"/>
      <path d="M433.34,367.32c-14.65-.77-29.33-.71-43.98-.35-3.05,9.44-5.96,18.95-8.69,28.48-.83,2.89-1.68,5.77-2.46,8.67l6.02-3.41c-12.6-3.91-27.15-8.1-39.92-11.56,0,0-3.9-1.07-3.9-1.07-1.13,2.32-5.01,10.33-6.2,12.78-4.29,9.06-8.99,19.08-12.95,28.24,0,0,4.08-1.36,4.08-1.36-7.65-3.13-15.37-6.14-23.16-8.94-2.59-.96-5.21-1.85-7.85-2.72,4.61,3.07,9.31,5.97,14.04,8.84,5.5,3.34,11.11,6.57,16.7,9.74,0,0,1.65-2.74,1.65-2.74,6.9-11.44,14.1-24.2,20.5-35.98,0,0-5.59,2.4-5.59,2.4l9.93,3.05c9.26,2.76,20.69,6.08,29.96,8.59,0,0,4.83,1.34,4.83,1.34,1.86-7.36,3.65-14.92,5.3-22.31,1.33-5.86,2.59-11.75,3.79-17.64,0,0-3.18,2.66-3.18,2.66,13.76-1.82,27.49-3.87,41.09-6.71h0Z"/>
      <path class="c" d="M294.32,257.27c9.39,5.17,21.96,13.4,34.47,26.05,11.93,12.07,19.8,24.11,24.84,33.26-7.55,3.33-16.01,7.09-24.33,12.64-16.53,11.02-23.98,14.9-34.98,26.36"/>
    </g>
    <g>
      <path class="b" d="M294.32,568.77c-224.04,0-226.91-239.55-226.91-239.55,0,0,22.98-158.55,226.91-158.55"/>
      <path class="b" d="M135,260.6c-43.66-18.9-38.3-82.86-38.3-82.86,0,0,43.66,13.79,96.89,20.3"/>
      <path class="b" d="M169.47,210.68c-57.06-40.02-44.43-101.49-44.43-101.49,0,0,96.89,58.6,150.13,65.11"/>
      <path class="e" d="M199.82,255.75c-2.74,4.79-4.31,10.32-4.31,16.23,0,18.08,14.66,32.74,32.74,32.74,12.07,0,22.6-6.53,28.28-16.25-21.58-6.21-40.96-17.59-56.72-32.73Z"/>
      <path d="M153,214.89c19.3,12.37,36.53,26.99,54.99,40.3,17.81,13.31,37.04,24.56,58.8,29.64,6.22,1.56,12.6,2.62,19.11,3.78-4.89,.73-9.86,1.19-14.82,1.19-25.48,.38-49.48-11.23-69-26.73-18.2-14.12-34.35-30.49-49.08-48.19h0Z"/>
      <path class="e" d="M294.32,342.72c-79.28-7.19-116.62-26.14-157.04-82.12-40,123.76,64.82,230.61,157.04,218.84"/>
      <path d="M155.3,367.32c14.65-.77,29.33-.71,43.98-.35,3.05,9.44,5.96,18.95,8.69,28.48,.83,2.89,1.68,5.77,2.46,8.67l-6.02-3.41c12.6-3.91,27.15-8.1,39.92-11.56,0,0,3.9-1.07,3.9-1.07,1.13,2.32,5.01,10.33,6.2,12.78,4.29,9.06,8.99,19.08,12.95,28.24,0,0-4.08-1.36-4.08-1.36,7.65-3.13,15.37-6.14,23.16-8.94,2.59-.96,5.21-1.85,7.85-2.72-4.61,3.07-9.31,5.97-14.04,8.84-5.5,3.34-11.11,6.57-16.7,9.74,0,0-1.65-2.74-1.65-2.74-6.9-11.44-14.1-24.2-20.5-35.98,0,0,5.59,2.4,5.59,2.4l-9.93,3.05c-9.26,2.76-20.69,6.08-29.96,8.59,0,0-4.83,1.34-4.83,1.34-1.86-7.36-3.65-14.92-5.3-22.31-1.33-5.86-2.59-11.75-3.79-17.64,0,0,3.18,2.66,3.18,2.66-13.76-1.82-27.49-3.87-41.09-6.71h0Z"/>
      <path class="c" d="M294.32,257.27c-9.39,5.17-21.96,13.4-34.47,26.05-11.93,12.07-19.8,24.11-24.84,33.26,7.55,3.33,16.01,7.09,24.33,12.64,16.53,11.02,23.98,14.9,34.98,26.36"/>
    </g>
  </g>
  <g>
    <path class="d" d="M370.22,166.53c-2.24,2.11-4.45,4.19-6.63,6.28-13.55,13-24.69,20.07-36.48,27.54-1.44,.91-2.89,1.83-4.36,2.77,10.51,2.53,30.13,4.32,50.08-9.17,17.67-11.95,29.02-45.53,34.7-67.03-13.84,17.46-26.11,29.03-37.32,39.61Z"/>
    <path class="d" d="M319.08,187.69c11.62-7.37,21.66-13.73,34.13-25.7,2.21-2.12,4.45-4.23,6.72-6.37,12.22-11.53,25.74-24.29,41.24-45.02-18.58,4.89-56.26,15.96-71.83,28.93-20.65,17.2-19.51,40.15-16.94,52.44,2.28-1.47,4.5-2.88,6.69-4.27Z"/>
  </g>
  <g>
    <path class="d" d="M249.12,124.26c9.69,30.16,23.19,59.22,37.77,81.64,12.68-14.59,37.23-50.27,15.45-88.97-22.57-40.11-51.55-69.43-67.43-83.82,.06,24.2,2.77,55.54,14.21,91.14Z"/>
    <path class="d" d="M234.84,128.85c-12.51-38.92-15.08-72.9-14.93-98.62-9.81,21.84-37.17,89.1-21.98,129.59,14.23,37.92,57.53,49.04,74.94,52.02-11-17.28-25.76-44.81-38.03-82.99Z"/>
  </g>
</svg>