<?xml version="1.0" encoding="utf-8"?>
<!-- Generator: Adobe Illustrator 28.2.0, SVG Export Plug-In . SVG Version: 6.00 Build 0)  -->
<svg version="1.1" id="_x32_" xmlns="http://www.w3.org/2000/svg" xmlns:xlink="http://www.w3.org/1999/xlink" x="0px" y="0px"
	 viewBox="0 0 800 800" style="enable-background:new 0 0 800 800;" xml:space="preserve">
<style type="text/css">
	.st0{fill:url(#SVGID_1_);}
</style>
<radialGradient id="SVGID_1_" cx="462.1915" cy="372.5745" r="493.84" gradientUnits="userSpaceOnUse">
	<stop  offset="0" style="stop-color:#FEDA95"/>
	<stop  offset="1" style="stop-color:#DFA51A"/>
</radialGradient>
<path class="st0" d="M800,171C800,108,749,57,686.1,57c-52.5,0-96.7,35.6-109.9,83.9C524.6,110.2,464.3,92.5,400,92.5
	c-47.5,0-92.8,9.6-134,27.1c-14.3,6-28,13-41.2,20.8c-11.8-50.3-57-87.8-110.9-87.8C51,52.6,0,103.6,0,166.6
	c0,56.2,40.6,102.8,94.1,112.2c-24.5,47.3-38.4,101.2-38.4,158.1c0,47.5,9.6,92.8,27.1,134c26.1,61.8,69.8,114.3,124.7,151.4
	c54.9,37.1,121.3,58.8,192.5,58.8c47.5,0,92.8-9.6,134-27.1c61.8-26.2,114.3-69.8,151.5-124.7c37.1-54.9,58.8-121.3,58.8-192.5
	c0-47.5-9.6-92.8-27.1-134c-2.9-6.8-6-13.5-9.3-20C760.4,272.6,800,226.4,800,171z M237,478.5c-70.8-2-84.5-82.6-43.2-135.6
	c41.3-53.1,68.2-66.1,106.1-59c31.4,5.9,52.9,39.8,33.4,98.3C319.6,423.5,296,480.1,237,478.5z M501.7,575.1
	c-2.3,5.8-5.6,10.8-9.5,15.1c-3.9,4.2-8.4,7.6-13.3,10.2c-9.7,5.2-20.7,7.3-31.4,7.3c-8.8,0-17.6-1.5-25.5-4.2
	c-7.9-2.7-15.1-6.6-20.7-12c-0.5-0.5-0.9-1-1.4-1.5c-3,3.2-6.6,5.9-10.5,8.2c-10.5,6.1-23.7,9.4-37.2,9.4c-8,0-16.2-1.2-23.9-4
	c-7.7-2.8-14.9-7.2-20.8-13.5c-3.9-4.2-7.2-9.3-9.5-15.1c-1.8-4.5,0.4-9.5,4.8-11.3c4.5-1.8,9.5,0.4,11.3,4.8c1.6,3.9,3.6,7,6.1,9.7
	c2.5,2.7,5.4,4.8,8.7,6.6c6.6,3.5,14.8,5.3,23.2,5.3c6.9,0,13.8-1.2,19.9-3.2c6-2,11.1-5,14.3-8.1c2.2-2.1,3.5-4.1,4.2-6
	c0.4-1.1,0.6-2.1,0.6-3.2v-42.8c-9.7-1.3-26.2-6.3-42.2-23.8c-7.8-8.6-13.3-32.5,6.6-41.9c10.4-4.9,25.7-5.9,44.4-5.9
	c18.7,0,34,1,44.4,5.9c19.9,9.4,14.4,33.3,6.6,41.9c-16.1,17.5-32.5,22.5-42.2,23.8v42.8c0,1.1,0.2,2.2,0.6,3.2
	c0.4,1.1,1,2.2,1.8,3.4c1.7,2.3,4.5,4.7,8.1,6.9c7.3,4.3,17.9,7.1,28.4,7c6.3,0,12.5-1,17.9-3c5.5-2,10.2-4.9,13.9-8.9
	c2.5-2.7,4.5-5.8,6.1-9.7c1.8-4.5,6.9-6.6,11.3-4.8C501.4,565.6,503.5,570.6,501.7,575.1z M562.8,478.2c-59,1.7-82.5-55-96.3-96.3
	c-19.5-58.5-11.8-84.5,25.6-100.3c37.3-15.7,72.7,7.9,114,60.9C647.3,395.7,633.6,476.3,562.8,478.2z"/>
</svg>
